<svg id="SvgjsSvg1107" width="288" height="288" xmlns="http://www.w3.org/2000/svg" version="1.1" xmlns:xlink="http://www.w3.org/1999/xlink" xmlns:svgjs="http://svgjs.com/svgjs"><defs id="SvgjsDefs1108"></defs><g id="SvgjsG1109"><svg xmlns="http://www.w3.org/2000/svg" viewBox="0 0 32 32" width="288" height="288"><path d="M26.5 10.723h1a.5.5 0 0 0 0-1h-1a.5.5 0 0 0 0 1zM26.5 17.723h-1a.5.5 0 0 0 0 1h1a.5.5 0 0 0 0-1zM4.5 15.723h3a.5.5 0 0 0 0-1h-3a.5.5 0 0 0 0 1zM4.5 13.723h9a.5.5 0 0 0 0-1h-9a.5.5 0 0 0 0 1zM4.5 11.723h15a.5.5 0 0 0 0-1h-15a.5.5 0 0 0 0 1zM19.5 12.723h-4a.5.5 0 0 0 0 1h4a.5.5 0 0 0 0-1zM4.5 9.723h15a.5.5 0 0 0 0-1h-15a.5.5 0 0 0 0 1zM7.5 7.723h12a.5.5 0 0 0 0-1h-12a.5.5 0 0 0 0 1zM4.5 7.723h1a.5.5 0 0 0 0-1h-1a.5.5 0 0 0 0 1zM10.5 14.723h-1a.5.5 0 0 0 0 1h1a.5.5 0 0 0 0-1z" fill="#ff6699" class="color000 svgShape"></path><path d="M1 16.223c0 1.378 1.122 2.5 2.5 2.5H5v3.5a.499.499 0 0 0 .813.391l3.312-2.65a2.494 2.494 0 0 0 2.375 1.759h9.825l4.863 3.891a.5.5 0 0 0 .812-.391v-3.5h1.5c1.378 0 2.5-1.121 2.5-2.5v-10c0-1.378-1.122-2.5-2.5-2.5H23v-.5c0-1.378-1.122-2.5-2.5-2.5h-17a2.503 2.503 0 0 0-2.5 2.5v10zm27.5-8.5c.827 0 1.5.673 1.5 1.5v10c0 .827-.673 1.5-1.5 1.5h-2a.5.5 0 0 0-.5.5v2.96l-4.188-3.351a.507.507 0 0 0-.313-.109h-10a1.502 1.502 0 0 1-1.5-1.46l.675-.54H23.5a.5.5 0 0 0 0-1h-1.013a2.48 2.48 0 0 0 .462-1H27.5a.5.5 0 0 0 0-1H23v-1h4.5a.5.5 0 0 0 0-1H23v-1h4.5a.5.5 0 0 0 0-1H23v-1h1.5a.5.5 0 0 0 0-1H23v-2h5.5zM2 6.223c0-.827.673-1.5 1.5-1.5h17c.827 0 1.5.673 1.5 1.5v10c0 .827-.673 1.5-1.5 1.5h-10a.507.507 0 0 0-.313.109l-1 .8-.001.001L6 21.183v-2.96a.5.5 0 0 0-.5-.5h-2c-.827 0-1.5-.673-1.5-1.5v-10z" fill="#ff6699" class="color000 svgShape"></path></svg></g></svg>